External Loads File
version=1
nRows=71
nColumns=13
Range=5.000000e-03-10 seconds
endheader
time 	forceRightX 	forceRightY 	forceRightZ 	pointRightX 	pointRightY 	pointRightZ 	forceLeftX 	forceLeftY 	forceLeftZ 	pointLeftX 	pointLeftY 	pointLeftZ 		
0.005000 4.915163 135.166811 -0.000000 0.168086 0.166667 -0.148755 7.668231 92.956620 -0.000000 0.311225 0.493220 -0.381813
0.010000 5.039000 135.554167 -0.000000 0.167891 0.166825 -0.148766 7.865118 96.340290 -0.000000 0.311459 0.493074 -0.381822
0.015000 5.105245 135.945914 -0.000000 0.167694 0.166987 -0.148753 7.900627 99.281379 -0.000000 0.311365 0.492930 -0.382207
0.020000 5.328901 136.310196 -0.000000 0.167487 0.167108 -0.148739 7.900140 101.619102 -0.000000 0.311575 0.492787 -0.382224
0.025000 5.606869 136.654118 -0.000000 0.167294 0.167202 -0.148772 7.760665 103.321146 -0.000000 0.311774 0.492767 -0.382222
0.030000 6.147555 136.972785 -0.000000 0.167090 0.167362 -0.148768 7.629284 104.412760 -0.000000 0.312273 0.492502 -0.381945
0.035000 6.662893 137.260440 -0.000000 0.166880 0.167488 -0.148776 7.325161 105.003567 -0.000000 0.312472 0.492372 -0.381941
0.040000 7.228061 137.482925 -0.000000 0.166703 0.167676 -0.148771 6.983488 105.217521 -0.000000 0.312677 0.492250 -0.381975
0.045000 7.795086 137.622526 -0.000000 0.166517 0.167827 -0.148759 6.646431 105.196672 -0.000000 0.312909 0.492122 -0.381949
0.050000 8.317319 137.692180 -0.000000 0.166329 0.168002 -0.148756 6.332675 105.060776 -0.000000 0.313101 0.492011 -0.381956
0.055000 8.803666 137.719654 -0.000000 0.166133 0.168107 -0.148737 6.087314 104.884711 -0.000000 0.313304 0.491867 -0.381968
0.060000 9.250883 137.719318 -0.000000 0.165941 0.168214 -0.148747 5.924562 104.699529 -0.000000 0.313497 0.491701 -0.381982
0.065000 9.665574 137.692997 -0.000000 0.165765 0.168367 -0.148720 5.821925 104.495908 -0.000000 0.313707 0.491558 -0.381978
0.070000 10.047602 137.654263 -0.000000 0.165587 0.168480 -0.148713 5.722609 104.239596 -0.000000 0.313930 0.491438 -0.381980
0.075000 10.406738 137.622892 -0.000000 0.165403 0.168605 -0.148732 5.588514 103.900929 -0.000000 0.314122 0.491305 -0.381976
0.080000 10.739213 137.604184 -0.000000 0.165226 0.168689 -0.148730 5.401697 103.489886 -0.000000 0.314325 0.491181 -0.381992
0.085000 11.039092 137.579701 -0.000000 0.165036 0.168781 -0.148730 5.166837 103.050598 -0.000000 0.314508 0.491033 -0.381989
0.090000 11.283249 137.518687 -0.000000 0.164862 0.168916 -0.148728 4.888112 102.625705 -0.000000 0.314695 0.490925 -0.381998
0.095000 11.464564 137.394927 -0.000000 0.164697 0.169049 -0.148739 4.584197 102.237983 -0.000000 0.314910 0.490838 -0.381957
0.100000 11.586493 137.209312 -0.000000 0.164556 0.169183 -0.148733 4.271035 101.898872 -0.000000 0.315129 0.490731 -0.381950
0.105000 11.674096 136.991237 -0.000000 0.164392 0.169352 -0.148738 3.962719 101.616024 -0.000000 0.315289 0.490621 -0.381952
0.110000 11.759186 136.768675 -0.000000 0.164248 0.169492 -0.148723 3.672123 101.398755 -0.000000 0.315466 0.490512 -0.381989
0.115000 11.864526 136.547100 -0.000000 0.164112 0.169610 -0.148728 3.411229 101.259789 -0.000000 0.315650 0.490362 -0.382010
0.120000 11.975398 136.329652 -0.000000 0.163981 0.169698 -0.148717 3.165363 101.205672 -0.000000 0.315832 0.490279 -0.382014
0.125000 12.127038 136.132258 -0.000000 0.163837 0.169777 -0.148710 2.960937 101.232750 -0.000000 0.316018 0.490158 -0.382014
0.130000 12.312803 135.983148 -0.000000 0.163695 0.169911 -0.148705 2.808673 101.320883 -0.000000 0.316192 0.490068 -0.382018
0.135000 12.532093 135.899404 -0.000000 0.163552 0.170029 -0.148690 2.730180 101.419284 -0.000000 0.316351 0.489958 -0.382022
0.140000 12.778680 135.890115 -0.000000 0.163411 0.170121 -0.148688 2.722751 101.467282 -0.000000 0.316508 0.489870 -0.382019
0.145000 13.050039 135.960313 -0.000000 0.163286 0.170196 -0.148684 2.759530 101.417859 -0.000000 0.316652 0.489776 -0.382035
0.150000 13.346546 136.097492 -0.000000 0.163157 0.170284 -0.148677 2.818592 101.242210 -0.000000 0.316799 0.489687 -0.382034
0.155000 13.633981 136.269864 -0.000000 0.163028 0.170346 -0.148692 2.873584 100.929552 -0.000000 0.316959 0.489616 -0.382052
0.160000 13.868327 136.448065 -0.000000 0.162908 0.170412 -0.148705 2.892437 100.476182 -0.000000 0.317074 0.489532 -0.382078
0.165000 14.050490 136.630068 -0.000000 0.162795 0.170493 -0.148705 2.859293 99.879382 -0.000000 0.317213 0.489494 -0.382055
0.170000 14.187955 136.839978 -0.000000 0.162678 0.170561 -0.148721 2.758458 99.163818 -0.000000 0.317351 0.489442 -0.382047
0.175000 14.300621 137.090103 -0.000000 0.162580 0.170620 -0.148739 2.602396 98.402183 -0.000000 0.317506 0.489394 -0.382006
0.180000 14.391111 137.363912 -0.000000 0.162493 0.170669 -0.148740 2.415208 97.687997 -0.000000 0.317610 0.489348 -0.382002
0.185000 14.484590 137.625294 -0.000000 0.162422 0.170742 -0.148732 2.245836 97.084000 -0.000000 0.317716 0.489310 -0.381988
0.190000 14.564019 137.847734 -0.000000 0.162349 0.170769 -0.148739 2.105592 96.602527 -0.000000 0.317814 0.489273 -0.381992
0.195000 14.628080 138.019822 -0.000000 0.162292 0.170833 -0.148733 2.005472 96.227631 -0.000000 0.317901 0.489248 -0.381986
0.200000 14.677398 138.142192 -0.000000 0.162243 0.170860 -0.148744 1.944956 95.933438 -0.000000 0.317986 0.489202 -0.381991
0.205000 14.694858 138.219096 -0.000000 0.162213 0.170877 -0.148742 1.899153 95.685432 -0.000000 0.318031 0.489180 -0.381996
0.210000 14.717869 138.249018 -0.000000 0.162188 0.170900 -0.148725 1.878499 95.452714 -0.000000 0.318096 0.489170 -0.381992
0.215000 14.734190 138.241495 -0.000000 0.162164 0.170920 -0.148731 1.864073 95.223927 -0.000000 0.318117 0.489156 -0.382013
0.220000 14.745028 138.214043 -0.000000 0.162175 0.170926 -0.148726 1.853182 95.009892 -0.000000 0.318116 0.489156 -0.382011
0.225000 14.783370 138.188023 -0.000000 0.162195 0.170915 -0.148733 1.866500 94.828074 -0.000000 0.318130 0.489163 -0.382035
0.230000 14.851666 138.187434 -0.000000 0.162202 0.170885 -0.148721 1.894389 94.679733 -0.000000 0.318125 0.489179 -0.382045
0.235000 14.946055 138.233128 -0.000000 0.162225 0.170876 -0.148724 1.909913 94.550150 -0.000000 0.318104 0.489209 -0.382044
0.240000 15.063792 138.346546 -0.000000 0.162261 0.170842 -0.148731 1.887311 94.431368 -0.000000 0.318077 0.489244 -0.382054
0.245000 15.185809 138.540480 -0.000000 0.162324 0.170764 -0.148729 1.817035 94.333446 -0.000000 0.318031 0.489290 -0.382065
0.250000 15.337155 138.790044 -0.000000 0.162376 0.170763 -0.148732 1.759199 94.275615 -0.000000 0.317982 0.489329 -0.382072
0.255000 15.475375 139.053667 -0.000000 0.162423 0.170707 -0.148738 1.738390 94.269066 -0.000000 0.317940 0.489373 -0.382054
0.260000 15.595836 139.293263 -0.000000 0.162485 0.170670 -0.148747 1.772474 94.292281 -0.000000 0.317888 0.489401 -0.382053
0.265000 15.695183 139.487675 -0.000000 0.162557 0.170640 -0.148739 1.846029 94.299501 -0.000000 0.317824 0.489448 -0.382056
0.270000 15.781213 139.617474 -0.000000 0.162629 0.170575 -0.148725 1.946175 94.250609 -0.000000 0.317768 0.489494 -0.382055
0.275000 15.836517 139.652934 -0.000000 0.162707 0.170522 -0.148719 2.056301 94.127732 -0.000000 0.317687 0.489535 -0.382050
0.280000 15.847274 139.552581 -0.000000 0.162795 0.170464 -0.148712 2.169262 93.930451 -0.000000 0.317619 0.489577 -0.382044
0.285000 15.792367 139.293496 -0.000000 0.162880 0.170414 -0.148697 2.261550 93.657034 -0.000000 0.317544 0.489632 -0.382058
0.290000 15.673842 138.895683 -0.000000 0.162954 0.170340 -0.148700 2.319511 93.306470 -0.000000 0.317486 0.489675 -0.382024
0.295000 15.484649 138.426823 -0.000000 0.163037 0.170300 -0.148691 2.333996 92.894247 -0.000000 0.317408 0.489720 -0.382020
0.300000 15.242551 137.978383 -0.000000 0.163115 0.170250 -0.148690 2.317152 92.455757 -0.000000 0.317313 0.489785 -0.382029
0.305000 15.000361 137.628784 -0.000000 0.163195 0.170210 -0.148698 2.301916 92.046006 -0.000000 0.317258 0.489847 -0.381993
0.310000 14.745525 137.418605 -0.000000 0.163291 0.170145 -0.148691 2.278238 91.726861 -0.000000 0.317160 0.489913 -0.382024
0.315000 14.539722 137.331944 -0.000000 0.163373 0.170095 -0.148695 2.287974 91.537297 -0.000000 0.317082 0.489978 -0.381993
0.320000 14.387922 137.336279 -0.000000 0.163461 0.170049 -0.148700 2.336626 91.474189 -0.000000 0.317003 0.490036 -0.381987
0.325000 14.287893 137.395985 -0.000000 0.163556 0.169969 -0.148701 2.424232 91.494275 -0.000000 0.316926 0.490097 -0.381966
0.330000 14.219426 137.481290 -0.000000 0.163647 0.169906 -0.148721 2.533098 91.539802 -0.000000 0.316799 0.490171 -0.382012
0.335000 14.180331 137.570992 -0.000000 0.163733 0.169844 -0.148722 2.656702 91.572713 -0.000000 0.316667 0.490241 -0.382061
0.340000 14.200681 137.652780 -0.000000 0.163813 0.169941 -0.148729 2.816324 91.592410 -0.000000 0.316575 0.490297 -0.382060
0.345000 14.199648 137.738568 -0.000000 0.163906 0.169870 -0.148724 2.958940 91.622207 -0.000000 0.316495 0.490370 -0.382058
0.350000 14.214978 137.834312 -0.000000 0.163987 0.169810 -0.148737 3.106863 91.677688 -0.000000 0.316405 0.490419 -0.382051
0.355000 14.209055 137.945218 -0.000000 0.164078 0.169623 -0.148732 3.238589 91.758807 -0.000000 0.316305 0.490476 -0.382059
